<?xml version="1.0" encoding="UTF-8" standalone="no"?>
<!-- Created with Inkscape (http://www.inkscape.org/) -->

<svg
   xmlns:dc="http://purl.org/dc/elements/1.1/"
   xmlns:cc="http://creativecommons.org/ns#"
   xmlns:rdf="http://www.w3.org/1999/02/22-rdf-syntax-ns#"
   xmlns:svg="http://www.w3.org/2000/svg"
   xmlns="http://www.w3.org/2000/svg"
   xmlns:sodipodi="http://sodipodi.sourceforge.net/DTD/sodipodi-0.dtd"
   xmlns:inkscape="http://www.inkscape.org/namespaces/inkscape"
   width="208.73639mm"
   height="207.06763mm"
   viewBox="0 0 208.73639 207.06763"
   version="1.1"
   id="svg6813"
   inkscape:version="0.92.1 r15371"
   sodipodi:docname="reportVector.svg">
  <defs
     id="defs6807" />
  <sodipodi:namedview
     id="base"
     pagecolor="#ffffff"
     bordercolor="#666666"
     borderopacity="1.0"
     inkscape:pageopacity="0.0"
     inkscape:pageshadow="2"
     inkscape:zoom="0.7"
     inkscape:cx="831.43058"
     inkscape:cy="236.96987"
     inkscape:document-units="mm"
     inkscape:current-layer="layer1"
     showgrid="false"
     inkscape:window-width="1920"
     inkscape:window-height="1017"
     inkscape:window-x="1912"
     inkscape:window-y="-8"
     inkscape:window-maximized="1"
     inkscape:snap-page="false" />
  <metadata
     id="metadata6810">
    <rdf:RDF>
      <cc:Work
         rdf:about="">
        <dc:format>image/svg+xml</dc:format>
        <dc:type
           rdf:resource="http://purl.org/dc/dcmitype/StillImage" />
        <dc:title></dc:title>
      </cc:Work>
    </rdf:RDF>
  </metadata>
  <g
     inkscape:label="Layer 1"
     inkscape:groupmode="layer"
     id="layer1"
     transform="translate(0.13864242,0.28848174)">
    <path
       style="fill:#fff; fill-opacity:1; stroke-width:0.27586582"
       d="M 99.379796,206.7266 C 80.813271,205.7654 62.446366,199.85069 47.284093,189.95019 40.453385,185.48995 36.012825,181.89684 30.233871,176.15392 22.070559,168.0415 14.701007,157.67727 9.9469504,147.62321 -3.5005067,119.18404 -3.5005067,87.279116 9.9469504,58.839946 16.817195,44.310506 28.22762,30.439585 41.464388,20.52623 54.193879,10.992784 69.67153,4.2554865 85.484945,1.3644385 c 12.054824,-2.20389365 25.434395,-2.20389365 37.489215,0 24.39359,4.4596985 46.9269,17.7193765 62.27842,36.6475955 5.08062,6.264346 10.10509,14.156702 13.25957,20.827912 13.44746,28.43917 13.44746,60.344094 0,88.783264 -6.87024,14.52944 -18.28066,28.40036 -31.51744,38.31372 -14.82722,11.10448 -33.03034,18.25396 -51.54143,20.24347 -3.99694,0.42957 -12.64792,0.72354 -16.073484,0.5462 z m 54.401334,-33.9507 c 0.63362,-0.41551 1.43511,-1.28053 1.78107,-1.92226 0.62842,-1.16567 0.62909,-1.18067 0.7074,-15.89071 l 0.0784,-14.72393 2.6929,-0.13101 c 2.17557,-0.10585 2.96247,-0.26698 4.09613,-0.83878 1.75468,-0.88503 3.21157,-2.46065 3.89232,-4.2095 0.49861,-1.28098 0.52415,-2.43014 0.52415,-23.58987 V 89.226539 l -0.779,-1.571928 c -1.51652,-3.060184 -3.86539,-4.332157 -7.99993,-4.332157 h -2.44479 l -0.003,-8.032302 c -0.002,-4.417766 -0.0793,-8.489168 -0.17244,-9.047557 C 156.01239,65.393 153.81692,62.771671 142.6994,50.177991 135.39245,41.900849 128.86779,34.603454 128.20015,33.961557 l -1.2139,-1.167088 H 92.24499 57.503604 l -1.444077,0.713069 c -1.072115,0.529399 -1.639339,1.042213 -2.202159,1.990912 l -0.758087,1.277845 -0.07533,23.242905 -0.07533,23.242909 -2.97309,0.100966 c -2.633423,0.08944 -3.120144,0.186386 -4.260244,0.848612 -1.440274,0.836581 -2.461988,1.931653 -3.368002,3.609822 l -0.610293,1.130417 -0.07723,22.077274 c -0.08749,25.01005 -0.170676,23.92191 2.01265,26.32821 1.779159,1.96086 3.272344,2.58394 6.586292,2.74839 l 2.702006,0.13406 v 14.33926 c 0,9.98965 0.09567,14.62242 0.315401,15.27272 0.485482,1.43682 1.480444,2.59024 2.789473,3.2337 l 1.190623,0.58527 47.686433,-0.0697 47.68644,-0.0697 z m -95.093083,-6.1555 c -0.101609,-0.10068 -0.184753,-6.09402 -0.184753,-13.31852 v -13.13544 h 46.003386 46.00339 v 13.31852 13.31851 h -45.81864 c -25.200247,0 -45.901771,-0.0824 -46.003383,-0.18307 z M 107.1402,124.9815 c -0.67596,-0.37935 -1.37809,-1.10009 -1.80134,-1.84909 l -0.69361,-1.22744 v -10.43513 -10.43513 l 0.69361,-1.227443 c 1.02866,-1.820357 2.36686,-2.46962 5.10174,-2.475256 2.64578,-0.0052 4.10866,0.68753 5.08494,2.408769 0.613,1.08079 0.62055,1.22367 0.62055,11.74232 v 10.64822 l -0.66564,1.12551 c -1.01065,1.70885 -2.40244,2.35633 -5.05323,2.35084 -1.74735,-0.003 -2.39886,-0.12774 -3.28702,-0.62617 z m 4.28495,-4.01961 c 0.18095,-0.33502 0.28688,-3.84024 0.28688,-9.49205 0,-5.65183 -0.10593,-9.15703 -0.28688,-9.49205 -0.32067,-0.59374 -1.36561,-0.70613 -1.87472,-0.20163 -0.47641,0.47207 -0.47641,18.91529 0,19.38736 0.50911,0.50449 1.55405,0.39211 1.87472,-0.20163 z M 64.600128,111.45051 V 97.56344 l 4.248853,0.08801 c 4.165214,0.08625 4.268868,0.103167 5.265739,0.85735 1.75867,1.330597 1.966664,2.00599 2.077286,6.74531 0.113478,4.86171 -0.170155,6.03685 -1.799132,7.4541 l -0.9793,0.85201 1.734845,5.54543 c 0.954163,3.04999 1.79041,5.6999 1.858326,5.88869 0.0926,0.25742 -0.470329,0.34327 -2.251084,0.34327 h -2.374562 l -0.287491,-1.02979 c -0.158118,-0.56638 -0.841092,-2.8216 -1.517715,-5.01161 l -1.230228,-3.98182 -0.01718,5.0116 -0.01716,5.01162 H 66.95573 64.600135 Z m 6.392182,-1.77529 c 0.486987,-0.25826 0.536039,-0.60504 0.536039,-3.7896 0,-3.79798 -0.126795,-4.16439 -1.44107,-4.16439 h -0.775961 v 4.11913 c 0,3.97975 0.01937,4.11913 0.572476,4.11913 0.314863,0 0.813695,-0.12792 1.108516,-0.28427 z m 8.018518,1.79462 V 97.602102 h 4.849754 4.849754 v 2.186566 2.186562 l -2.563442,0.079 -2.56344,0.079 -0.07866,2.95204 -0.07866,2.95204 h 2.36497 2.364971 v 2.18576 2.18577 l -2.286313,0.0798 -2.286313,0.0797 v 4.11913 4.11913 l 2.563441,0.079 2.563442,0.079 v 2.18656 2.18657 h -4.849754 -4.849755 z m 12.470797,-0.008 V 97.563451 l 4.248853,0.08801 c 4.198174,0.08697 4.261365,0.09746 5.298382,0.88202 1.8493,1.399129 2.15344,2.542769 2.04634,7.694639 -0.0879,4.22709 -0.12889,4.51279 -0.78555,5.47338 -0.90786,1.32806 -3.00851,2.37715 -4.759863,2.37715 h -1.325496 l -0.07502,5.56082 -0.07502,5.56083 -2.286313,0.0797 -2.286312,0.0798 v -13.8982 z m 6.392186,-1.7864 c 0.486985,-0.25827 0.536036,-0.60505 0.536036,-3.78961 0,-3.79799 -0.1268,-4.16439 -1.441067,-4.16439 h -0.775965 v 4.11913 c 0,3.97975 0.01938,4.11913 0.572473,4.11913 0.314864,0 0.813696,-0.12792 1.108523,-0.28427 z m 21.043569,1.7946 V 97.602102 h 3.92473 c 3.64366,0 4.0061,0.04722 5.06059,0.65959 0.63465,0.368544 1.40967,1.142375 1.75641,1.753688 0.57386,1.01178 0.62055,1.43947 0.62055,5.68357 0,5.12884 -0.20882,5.95893 -1.80202,7.16306 l -0.89264,0.67466 1.76211,5.55719 c 0.96917,3.05646 1.76252,5.71665 1.76302,5.91156 5.6e-4,0.26722 -0.55993,0.33475 -2.2799,0.2746 l -2.28083,-0.0797 -1.42767,-4.75032 c -0.78521,-2.61268 -1.50476,-4.82671 -1.59898,-4.92007 -0.0943,-0.0934 -0.17131,2.07517 -0.17131,4.81897 v 4.98873 h -2.21703 -2.21703 z m 6.6937,-2.11849 c 0.3293,-0.51425 0.28534,-6.47369 -0.0524,-7.09895 -0.19889,-0.36824 -0.58139,-0.53116 -1.24708,-0.53116 h -0.9602 v 4.15506 4.15506 l 1.01681,-0.16351 c 0.55925,-0.0899 1.11853,-0.32235 1.24283,-0.5165 z m 9.59063,4.38401 -0.0723,-11.60221 -1.66278,-0.13731 -1.66277,-0.1373 v -2.059559 -2.05957 h 5.68114 5.68115 v 2.05957 2.059559 l -1.73206,0.0818 -1.73205,0.0818 v 11.65777 11.65776 h -2.21403 -2.21402 z M 58.780422,60.667244 V 38.286642 h 32.146945 32.146953 v 14.206873 c 0,9.188938 0.10285,14.515611 0.29113,15.080981 0.5928,1.779897 0.28756,1.742919 14.38695,1.742919 h 12.75767 v 6.865215 6.865215 H 104.64525 58.780422 Z"
       id="path5709"
       inkscape:connector-curvature="0" />
  </g>
</svg>
